<?xml version="1.0" encoding="UTF-8"?>
<svg id="Layer_1" data-name="Layer 1" xmlns="http://www.w3.org/2000/svg" viewBox="0 0 1300 900">
  <defs>
    <style>
      .cls-1 {
        fill: #ea6c18;
      }
    </style>
  </defs>
  <g>
    <path d="M599.11,405.32h14.41c4.53,0,7.97,1.28,10.31,3.83,2.3,2.52,3.45,5.57,3.45,9.17s-1.21,6.71-3.62,9.12c-2.37,2.45-5.95,3.67-10.74,3.67h-6.48v14.08h-7.34v-39.87ZM606.45,424.37h6.69c2.09,0,3.71-.58,4.88-1.75,1.17-1.17,1.75-2.63,1.75-4.4s-.55-3.21-1.65-4.34c-1.1-1.13-2.58-1.7-4.45-1.7h-7.23v12.2Z"/>
    <path d="M659.7,445.2h-26.49v-39.87h26.49v6.91h-19.1v9.39h17.64v6.85h-17.64v9.82h19.1v6.91Z"/>
    <path d="M667.2,405.32h14.41c4.53,0,7.97,1.28,10.31,3.83,2.3,2.52,3.45,5.57,3.45,9.17s-1.21,6.71-3.62,9.12c-2.37,2.45-5.95,3.67-10.74,3.67h-6.48v14.08h-7.34v-39.87ZM674.54,424.37h6.69c2.09,0,3.71-.58,4.88-1.75,1.17-1.17,1.75-2.63,1.75-4.4s-.55-3.21-1.65-4.34c-1.1-1.13-2.58-1.7-4.45-1.7h-7.23v12.2Z"/>
    <path d="M708.96,445.2v-32.75h-11.49v-7.12h30.43v7.12h-11.49v32.75h-7.45Z"/>
    <path d="M733.24,445.2v-39.87h7.39v39.87h-7.39Z"/>
    <path d="M764.86,445.2h-15.05v-39.87h15.38c5.9,0,10.54,1.8,13.92,5.39,3.38,3.53,5.07,8.4,5.07,14.62s-1.73,10.95-5.18,14.51c-3.38,3.56-8.09,5.34-14.14,5.34ZM757.14,412.39v25.74h7.99c3.56,0,6.35-1.22,8.36-3.67,2.01-2.45,3.02-5.54,3.02-9.28s-.99-6.71-2.97-9.12c-2.02-2.45-4.8-3.67-8.36-3.67h-8.04Z"/>
    <path d="M817.68,445.2h-26.49v-39.87h26.49v6.91h-19.1v9.39h17.64v6.85h-17.64v9.82h19.1v6.91Z"/>
    <path d="M606.3,494.68h-7.19v-39.36h4.58l15.76,22.95,15.71-22.95h4.63v39.36h-7.24v-23.33l-11.93,17.26h-2.4l-11.93-17.26v23.33Z"/>
    <path d="M680.65,494.68h-7.72l-3.25-8.95h-13.95l-3.25,8.95h-7.72l15.23-39.36h5.59l15.07,39.36ZM667.6,479.18l-4.85-13.47-4.9,13.47h9.75Z"/>
    <path d="M715.16,494.68h-8.63l-8.79-14.75h-4.85v14.75h-7.24v-39.36h14.65c4.26,0,7.53,1.19,9.8,3.57,2.27,2.38,3.41,5.29,3.41,8.73,0,2.66-.71,5.02-2.13,7.08-1.42,2.06-3.46,3.51-6.13,4.37l9.91,15.6ZM700.3,462.08h-7.4v11.29h6.61c2.13,0,3.75-.53,4.87-1.6,1.12-1.07,1.68-2.43,1.68-4.1s-.52-2.97-1.54-4.02c-1.03-1.05-2.43-1.57-4.21-1.57Z"/>
    <path d="M753.98,494.68h-8.95l-11.66-16.03-4.95,6.02v10.01h-7.24v-39.36h7.24v19.33l15.66-19.33h8.79l-14.7,18,15.82,21.36Z"/>
    <path d="M784.02,494.68h-26.15v-39.36h26.15v6.82h-18.85v9.27h17.42v6.76h-17.42v9.69h18.85v6.82Z"/>
    <path d="M798.99,494.68v-32.33h-11.34v-7.03h30.04v7.03h-11.34v32.33h-7.35Z"/>
  </g>
  <polygon class="cls-1" points="528.94 467.27 570.74 425.49 570.63 425.37 552.18 405.42 509.63 447.97 509.63 405.62 482.32 405.62 482.32 473.94 501.41 494.58 572.76 494.58 572.76 467.27 528.94 467.27"/>
</svg>